<svg width="17" height="17" viewBox="0 0 17 17" fill="none" xmlns="http://www.w3.org/2000/svg">
<path d="M15.7849 3.1867H13.1932V1.24295C13.1932 0.880115 12.9081 0.595032 12.5453 0.595032C12.1825 0.595032 11.8974 0.880115 11.8974 1.24295V3.1867H5.41823V1.24295C5.41823 0.880115 5.13315 0.595032 4.77031 0.595032C4.40748 0.595032 4.1224 0.880115 4.1224 1.24295V3.1867H1.53073C1.1679 3.1867 0.882812 3.47178 0.882812 3.83462V15.4971C0.882812 15.8599 1.1679 16.145 1.53073 16.145H15.7849C16.1477 16.145 16.4328 15.8599 16.4328 15.4971V3.83462C16.4328 3.47178 16.1477 3.1867 15.7849 3.1867ZM15.137 14.8492H2.17865V4.48253H15.137V14.8492Z" fill="#4C4A41"/>
<path d="M4.12057 9.66588H6.71224C7.07507 9.66588 7.36016 9.3808 7.36016 9.01796V6.4263C7.36016 6.06346 7.07507 5.77838 6.71224 5.77838H4.12057C3.75774 5.77838 3.47266 6.06346 3.47266 6.4263V9.01796C3.47266 9.3808 3.75774 9.66588 4.12057 9.66588ZM4.76849 7.07421H6.06432V8.37005H4.76849V7.07421Z" fill="#4C4A41"/>
<path d="M10.6049 13.5534H13.1966C13.5594 13.5534 13.8445 13.2683 13.8445 12.9055V10.3138C13.8445 9.95096 13.5594 9.66588 13.1966 9.66588H10.6049C10.2421 9.66588 9.95703 9.95096 9.95703 10.3138V12.9055C9.95703 13.2683 10.2421 13.5534 10.6049 13.5534ZM11.2529 10.9617H12.5487V12.2575H11.2529V10.9617Z" fill="#4C4A41"/>
</svg>
