<svg width="18" height="18" viewBox="0 0 18 18" fill="none" xmlns="http://www.w3.org/2000/svg">
<path opacity="0.7" d="M13.6469 7.66096C14.5022 6.87698 15.0723 5.73665 15.0723 4.45377C15.0723 2.10183 13.148 0.177521 10.7961 0.177521C8.65797 0.177521 6.94747 1.60294 6.59111 3.74106H6.51984C4.16791 3.74106 2.24359 5.66537 2.24359 8.01731C2.24359 9.30019 2.81376 10.4405 3.66901 11.2245C2.38614 11.5096 1.17453 12.2936 0.105469 13.719V16.5698C0.105469 16.9974 0.390552 17.2825 0.818177 17.2825H12.2215C12.6491 17.2825 12.9342 16.9974 12.9342 16.5698V13.719H16.4978C16.9254 13.719 17.2105 13.4339 17.2105 13.0063V10.1554C16.2127 8.73002 14.9298 7.94604 13.6469 7.66096ZM10.7961 1.60294C12.3641 1.60294 13.6469 2.88581 13.6469 4.45377C13.6469 6.02173 12.4353 7.3046 10.7961 7.3046C10.7961 5.80792 9.44195 4.52504 8.01653 4.02615C8.23034 2.672 9.37068 1.60294 10.7961 1.60294ZM3.66901 8.01731C3.66901 6.44935 4.95189 5.16648 6.51984 5.16648C8.0878 5.16648 9.37068 6.44935 9.37068 8.01731C9.37068 9.58527 8.0878 10.8681 6.51984 10.8681C4.95189 10.8681 3.66901 9.58527 3.66901 8.01731ZM11.5088 15.8571H1.53089V14.4317C1.53089 14.4317 2.9563 12.2936 6.51984 12.2936C10.0834 12.2936 11.5088 14.4317 11.5088 14.4317V15.8571ZM15.7851 12.2936H11.5801C10.8674 11.7234 10.1547 11.367 9.37068 11.2245C10.0834 10.5831 10.5823 9.72781 10.7248 8.73002H10.7961C14.3596 8.73002 15.7851 10.8681 15.7851 10.8681V12.2936Z" fill="black"/>
</svg>
