<svg width="22" height="22" viewBox="0 0 22 22" fill="none" xmlns="http://www.w3.org/2000/svg">
<path d="M9.75792 4.76902C9.75792 3.49609 8.72258 2.46075 7.44965 2.46075C6.17634 2.46075 5.14062 3.49609 5.14062 4.76902C5.14062 6.04195 6.17634 7.07729 7.44965 7.07729C8.72258 7.07767 9.75792 6.04195 9.75792 4.76902ZM6.42488 4.76902C6.42488 4.20433 6.88457 3.74502 7.44965 3.74502C8.01472 3.74502 8.47366 4.20433 8.47366 4.76902C8.47366 5.33372 8.01472 5.79303 7.44965 5.79303C6.88457 5.79303 6.42488 5.33372 6.42488 4.76902Z" fill="#4C4A41"/>
<path d="M14.3996 6.9806H10.9763C11.3869 6.22931 11.6736 5.48368 11.6736 4.85515C11.6736 2.52686 9.77929 0.632202 7.45175 0.632202C5.12347 0.632202 3.22956 2.52686 3.22956 4.85515C3.22956 5.48368 3.51587 6.22931 3.92684 6.9806H0.503906V21.1747H13.1153H14.3996H19.004C20.4062 21.1747 21.5465 20.034 21.5465 18.6322V10.578L14.3996 10.5769V6.9806ZM7.45175 1.91684C9.07105 1.91684 10.3889 3.23472 10.3889 4.85515C10.3889 5.96604 8.7413 8.17005 7.45175 9.6054C6.16221 8.17005 4.5142 5.96604 4.5142 4.85515C4.5142 3.23472 5.8317 1.91684 7.45175 1.91684ZM13.1153 19.8904H1.78854V8.26486H4.64262V8.13719C5.61677 9.5495 6.77336 10.7707 6.98942 10.9943L7.45213 11.4744L7.91484 10.9943C8.13014 10.7703 9.28636 9.55026 10.2601 8.13833V8.26449H13.1153V10.5765V19.8904ZM20.2626 11.8627V18.6322C20.2626 19.3261 19.6983 19.8904 19.0044 19.8904H14.3996V11.8615L20.2626 11.8627Z" fill="#4C4A41"/>
<path d="M6.1202 16.2684H4.83594V18.633H6.1202V16.2684Z" fill="#4C4A41"/>
<path d="M6.1202 11.5397H4.83594V13.9043H6.1202V11.5397Z" fill="#4C4A41"/>
<path d="M10.0655 16.2684H8.78125V18.633H10.0655V16.2684Z" fill="#4C4A41"/>
<path d="M10.0655 11.5397H8.78125V13.9043H10.0655V11.5397Z" fill="#4C4A41"/>
<path d="M18.6326 13.6282H16.1211V14.9124H18.6326V13.6282Z" fill="#4C4A41"/>
<path d="M18.6326 16.7806H16.1211V18.0649H18.6326V16.7806Z" fill="#4C4A41"/>
</svg>
