<svg width="26" height="17" viewBox="0 0 26 17" fill="none" xmlns="http://www.w3.org/2000/svg">
<path opacity="0.7" d="M24.0768 9.78135L22.5995 10.2789L21.3166 3.2348L24.6132 1.91305C24.7082 1.87527 24.7948 1.81916 24.868 1.74792C24.9413 1.67668 24.9998 1.5917 25.0403 1.49785C25.0807 1.40399 25.1022 1.30309 25.1037 1.2009C25.1051 1.09872 25.0864 0.997254 25.0486 0.902298C25.0108 0.807342 24.9547 0.720758 24.8835 0.647487C24.8123 0.574217 24.7273 0.515695 24.6334 0.475265C24.5396 0.434834 24.4387 0.413286 24.3365 0.41185C24.2343 0.410415 24.1328 0.42912 24.0379 0.466898L20.1504 2.0219C19.981 2.08614 19.8393 2.20753 19.7499 2.3651C19.6604 2.52268 19.6288 2.70654 19.6606 2.88492V3.02487L17.8023 3.9501C17.6732 4.01559 17.5284 4.04374 17.3842 4.03138C17.2399 4.01902 17.102 3.96663 16.986 3.88012L15.0966 2.43397C14.6929 2.13116 14.2018 1.96747 13.6971 1.96747H11.5901C11.3038 1.96761 11.023 2.04682 10.7788 2.19636C10.5346 2.34589 10.3364 2.55996 10.2062 2.81495L8.81443 2.74497C8.67962 2.73927 8.54564 2.76874 8.42568 2.8305L7.12725 3.47582L4.88805 2.91602V2.81495C4.90458 2.65721 4.87248 2.49818 4.79604 2.3592C4.71961 2.22023 4.6025 2.10796 4.46043 2.03745L1.35043 0.482448C1.1692 0.40698 0.966125 0.402863 0.781985 0.470924C0.597845 0.538985 0.446269 0.674185 0.357687 0.84938C0.269106 1.02457 0.250078 1.22679 0.304423 1.41544C0.358769 1.60408 0.482464 1.76518 0.650676 1.8664L3.2864 3.18815L2.64885 10.2323L1.24935 9.7658C1.14878 9.73313 1.04276 9.72058 0.937339 9.72888C0.83192 9.73718 0.729168 9.76617 0.63495 9.81418C0.540732 9.86219 0.456894 9.92829 0.388221 10.0087C0.319548 10.0891 0.267386 10.1823 0.234713 10.2828C0.20204 10.3834 0.189496 10.4894 0.197797 10.5948C0.206099 10.7003 0.235082 10.803 0.283094 10.8972C0.331105 10.9915 0.397204 11.0753 0.477616 11.144C0.558028 11.2126 0.65118 11.2648 0.751751 11.2975L3.08425 12.075C3.16681 12.0862 3.2505 12.0862 3.33305 12.075C3.48408 12.072 3.63162 12.0291 3.76068 11.9506C3.85936 11.8862 3.94214 11.8003 4.00275 11.6993C4.06336 11.5983 4.10022 11.4848 4.11055 11.3674L4.17275 10.6444L5.17573 11.142C5.26876 11.719 5.57031 12.2419 6.0232 12.6114L10.5094 15.8303C10.6688 15.9619 10.853 16.0603 11.0509 16.1199C11.2489 16.1795 11.4568 16.199 11.6624 16.1773C11.868 16.1556 12.0672 16.0931 12.2484 15.9934C12.4295 15.8938 12.589 15.7591 12.7175 15.597C13.0134 15.7095 13.3296 15.7586 13.6457 15.7412C13.9617 15.7238 14.2706 15.6402 14.5524 15.496L18.7587 13.3967C19.0125 13.2685 19.2323 13.0818 19.3999 12.852C19.5675 12.6222 19.6782 12.3559 19.7227 12.075C19.7305 11.9922 19.7305 11.9089 19.7227 11.8262L21.2 11.3363V11.4296C21.2197 11.5387 21.2625 11.6423 21.3255 11.7335C21.3886 11.8247 21.4703 11.9014 21.5654 11.9583C21.6936 12.0379 21.8422 12.0784 21.9931 12.075C22.0774 12.0734 22.1611 12.0603 22.2418 12.0361L24.5744 11.2586C24.6713 11.2259 24.761 11.1745 24.8381 11.1072C24.9152 11.0399 24.9783 10.958 25.0238 10.8663C25.0693 10.7746 25.0962 10.6749 25.1032 10.5728C25.1101 10.4707 25.0968 10.3682 25.0642 10.2712C25.0315 10.1742 24.98 10.0846 24.9127 10.0075C24.8454 9.93034 24.7636 9.86724 24.6719 9.82176C24.5802 9.77627 24.4805 9.74929 24.3783 9.74236C24.2762 9.73543 24.1737 9.74867 24.0768 9.78135ZM6.97175 11.383C6.8488 11.2806 6.76043 11.1428 6.71868 10.9884C6.67694 10.8339 6.68386 10.6703 6.7385 10.52C6.7463 10.493 6.76126 10.4686 6.78179 10.4495C6.80232 10.4303 6.82767 10.417 6.85512 10.4111C6.90178 10.4111 6.96398 10.4111 7.05728 10.4733L11.7612 13.871L11.5046 14.6485L6.97175 11.383ZM18.0589 12.005L13.8526 14.1042C13.6695 14.1972 13.4571 14.214 13.2617 14.1509C13.3118 13.8747 13.2863 13.5901 13.1877 13.3273C13.0891 13.0645 12.9213 12.8332 12.7019 12.6581L8.03693 9.26042C7.81575 9.08444 7.55474 8.96546 7.27683 8.91395C6.99892 8.86243 6.71261 8.87995 6.44305 8.96497C6.07201 9.07231 5.74849 9.30262 5.5256 9.61807L4.4682 9.08937C4.42382 9.06931 4.37662 9.05619 4.32825 9.0505L4.74033 4.51767L7.07283 5.09302L7.22055 5.07747C7.34226 5.07674 7.4621 5.04745 7.57043 4.99195L8.93883 4.29997H9.4442L8.86108 5.474C8.76885 5.65762 8.75307 5.87028 8.81717 6.0655C8.88128 6.26073 9.02005 6.42264 9.20318 6.51585L9.36645 6.60137C9.8726 6.85535 10.4539 6.91651 11.0018 6.77345C11.5497 6.63038 12.0269 6.29287 12.3443 5.82387H13.1218L18.0822 11.4918C18.1027 11.5324 18.126 11.5714 18.1522 11.6085C18.1789 11.6324 18.1987 11.6631 18.2096 11.6972C18.2206 11.7314 18.2222 11.7678 18.2144 11.8028C18.2178 11.8435 18.2094 11.8842 18.1901 11.9201C18.1707 11.956 18.1414 11.9855 18.1056 12.005H18.0589ZM19.1163 10.3956L14.0159 4.56432C13.9439 4.48236 13.8555 4.41647 13.7564 4.37093C13.6572 4.32538 13.5496 4.30121 13.4406 4.29997H11.8856C11.742 4.30041 11.6013 4.34059 11.4792 4.41607C11.357 4.49155 11.2582 4.59938 11.1936 4.7276L11.1081 4.89087C11.0256 5.05472 10.8879 5.18416 10.7193 5.2563L11.5901 3.52247H13.6971C13.8654 3.52247 14.029 3.57704 14.1636 3.67797L16.0918 5.12412C16.4385 5.38337 16.8504 5.54105 17.2816 5.57949C17.7128 5.61794 18.1461 5.53565 18.5332 5.34182L19.9871 4.61875L20.9279 9.7969L19.1163 10.3956Z" fill="black"/>
</svg>
