<svg width="17" height="15" viewBox="0 0 17 15" fill="none" xmlns="http://www.w3.org/2000/svg">
<path opacity="0.7" d="M9.43922 11.5475H7.88422V13.1025H9.43922V11.5475ZM10.9942 11.5475V13.1025H12.5492C12.7554 13.1025 12.9532 13.1844 13.099 13.3302C13.2448 13.476 13.3267 13.6738 13.3267 13.88C13.3267 14.0862 13.2448 14.2839 13.099 14.4298C12.9532 14.5756 12.7554 14.6575 12.5492 14.6575H4.77422C4.56801 14.6575 4.37025 14.5756 4.22444 14.4298C4.07863 14.2839 3.99672 14.0862 3.99672 13.88C3.99672 13.6738 4.07863 13.476 4.22444 13.3302C4.37025 13.1844 4.56801 13.1025 4.77422 13.1025H6.32922V11.5475H2.44172C2.02931 11.5475 1.63379 11.3836 1.34217 11.092C1.05055 10.8004 0.886719 10.4049 0.886719 9.99248V2.21748C0.886719 1.36223 1.58647 0.662476 2.44172 0.662476H14.8817C15.2941 0.662476 15.6897 0.826305 15.9813 1.11792C16.2729 1.40954 16.4367 1.80506 16.4367 2.21748V9.99248C16.4367 10.4049 16.2729 10.8004 15.9813 11.092C15.6897 11.3836 15.2941 11.5475 14.8817 11.5475H10.9942ZM2.44172 2.21748V9.99248H14.8817V2.21748H2.44172Z" fill="black"/>
</svg>
