<svg width="22" height="21" viewBox="0 0 22 21" fill="none" xmlns="http://www.w3.org/2000/svg">
<path d="M9.75792 4.40908C9.75792 3.13616 8.72258 2.10081 7.44965 2.10081C6.17634 2.10081 5.14062 3.13616 5.14062 4.40908C5.14062 5.68201 6.17634 6.71735 7.44965 6.71735C8.72258 6.71773 9.75792 5.68201 9.75792 4.40908ZM6.42488 4.40908C6.42488 3.84439 6.88457 3.38508 7.44965 3.38508C8.01472 3.38508 8.47366 3.84439 8.47366 4.40908C8.47366 4.97378 8.01472 5.43309 7.44965 5.43309C6.88457 5.43309 6.42488 4.97378 6.42488 4.40908Z" fill="#4C4A41"/>
<path d="M14.3996 6.62065H10.9763C11.3869 5.86935 11.6736 5.12373 11.6736 4.4952C11.6736 2.16691 9.77929 0.272247 7.45175 0.272247C5.12347 0.272247 3.22956 2.16691 3.22956 4.4952C3.22956 5.12373 3.51587 5.86935 3.92684 6.62065H0.503906V20.8147H13.1153H14.3996H19.004C20.4062 20.8147 21.5465 19.674 21.5465 18.2723V10.2181L14.3996 10.217V6.62065ZM7.45175 1.55689C9.07105 1.55689 10.3889 2.87476 10.3889 4.4952C10.3889 5.60608 8.7413 7.8101 7.45175 9.24545C6.16221 7.8101 4.5142 5.60608 4.5142 4.4952C4.5142 2.87476 5.8317 1.55689 7.45175 1.55689ZM13.1153 19.5305H1.78854V7.90491H4.64262V7.77724C5.61677 9.18955 6.77336 10.4107 6.98942 10.6343L7.45213 11.1144L7.91484 10.6343C8.13014 10.4103 9.28636 9.1903 10.2601 7.77837V7.90453H13.1153V10.2166V19.5305ZM20.2626 11.5027V18.2723C20.2626 18.9662 19.6983 19.5305 19.0044 19.5305H14.3996V11.5016L20.2626 11.5027Z" fill="#4C4A41"/>
<path d="M6.1202 15.9085H4.83594V18.273H6.1202V15.9085Z" fill="#4C4A41"/>
<path d="M6.1202 11.1798H4.83594V13.5443H6.1202V11.1798Z" fill="#4C4A41"/>
<path d="M10.0655 15.9085H8.78125V18.273H10.0655V15.9085Z" fill="#4C4A41"/>
<path d="M10.0655 11.1798H8.78125V13.5443H10.0655V11.1798Z" fill="#4C4A41"/>
<path d="M18.6326 13.2682H16.1211V14.5525H18.6326V13.2682Z" fill="#4C4A41"/>
<path d="M18.6326 16.4207H16.1211V17.7049H18.6326V16.4207Z" fill="#4C4A41"/>
</svg>
